<?xml version="1.0" encoding="utf-8"?>
<!-- Generator: Adobe Illustrator 27.6.1, SVG Export Plug-In . SVG Version: 6.00 Build 0)  -->
<svg version="1.1" id="e87ddc62-7528-42a5-8b37-f74ed0351019"
	 xmlns="http://www.w3.org/2000/svg" xmlns:xlink="http://www.w3.org/1999/xlink" x="0px" y="0px" viewBox="0 0 1131 812.2"
	 style="enable-background:new 0 0 1131 812.2;" xml:space="preserve">
<style type="text/css">
	.st0{opacity:0.18;fill:none;stroke:#FFFFFF;stroke-width:5;stroke-miterlimit:10;}
	.st1{fill:#FFFFFF;}
	.st2{fill:#008067;}
	.st3{fill:none;stroke:#006D51;stroke-miterlimit:10;}
	.st4{opacity:0.5;fill:#006D51;}
	.st5{fill:#009A79;}
	.st6{fill:none;stroke:#008067;stroke-miterlimit:10;}
	.st7{opacity:0.5;fill:#008067;}
	.st8{fill:#FFA14D;}
	.st9{fill:#F58300;}
	.st10{fill:#78C5EF;}
	.st11{fill:#1B89E5;}
	.st12{fill:#EDF4FD;}
	.st13{fill:#4E85F7;}
	.st14{fill:#46AFC8;}
	.st15{fill:#FFD46D;}
	.st16{fill:#FF6175;}
	.st17{fill:#D9CFFF;}
	.st18{fill-rule:evenodd;clip-rule:evenodd;fill:#4DC7D3;}
	.st19{fill-rule:evenodd;clip-rule:evenodd;fill:#5467EC;}
	.st20{fill:#F8FBFF;}
	.st21{fill-rule:evenodd;clip-rule:evenodd;fill:#FA8974;}
	.st22{fill-rule:evenodd;clip-rule:evenodd;fill:#F4CD54;}
	.st23{fill:#173774;}
	.st24{fill:#E589EF;}
	.st25{fill:#F4D6C9;}
	.st26{fill:#EABDA9;}
	.st27{fill:#D880E5;}
	.st28{fill:#1B1464;}
	.st29{fill:#CCCCCC;}
	.st30{fill:#F2F2F2;}
	.st31{clip-path:url(#SVGID_00000069370460422612709320000012323926766577147290_);fill:#CCCCCC;}
	.st32{fill:none;stroke:#EDF4FD;stroke-width:5.2571;stroke-miterlimit:10;}
	.st33{fill:none;stroke:#D9CFFF;stroke-width:1.8234;stroke-linecap:round;stroke-miterlimit:10;}
</style>
<g>
	<defs>
		<path id="SVGID_1_" d="M22.8,645.8C8.6,598.9,7.1,540.2,40.3,507.1c35.2-35.1,89.8-24.4,135.9-36.5
			c56.3-14.9,102.2-69.9,111.2-133.2c3.4-24,2-49,8.7-72.2c12.3-41.9,48.8-69.1,85.5-86.1c59.4-27.5,126.8-36.7,188.8-17.6
			s117.5,68.1,141.5,134.2c16.5,45.3,17.8,95.3,26.8,143c9,47.8,28.9,97.5,68.3,119.5c54.4,30.3,127.6-2.3,177.2,36.8
			c30.3,23.8,42,70.3,33.1,110.2c-8.9,39.9-35.6,73-67.6,94s-68.8,31-105.5,36.9c-65.5,10.5-132.7,8.4-197.6-6.1
			c-37.4-8.4-75.9-20.8-113.1-11.7c-19,4.7-36.4,14.7-54.4,23c-126.8,58.3-303.6,26.7-398-87.4C55.4,722.7,35.1,685.9,22.8,645.8z"
			/>
	</defs>
	<clipPath id="SVGID_00000093175603396863437990000014286132240076426667_">
		<use xlink:href="#SVGID_1_"  style="overflow:visible;"/>
	</clipPath>
</g>
<path class="st0" d="M167.6,574.1c60.4,83.6,158.5,134.2,259.4,155.2c167.9,34.9,650.4,33.4,653.5-265.3
	c0.8-74.5-47.3-151.9-120-168.3c-66.6-15-133.8,21.2-202,23.7c-142,5.3-247.6-125.3-369.5-178.3c-63.7-27.7-141-35.8-200.4,0.1
	C58.6,220.1,80.1,452.9,167.6,574.1"/>
<path class="st1" d="M534.7,86h9.1l17.7-57.4h-9.1L534.7,86L534.7,86z M533.5,42.7l-26.5,11.1v9.4l26.5,11.1v-8.9l-17.1-6.9
	l17.1-6.9V42.7L533.5,42.7z M562.1,42.7v8.9l17.1,6.9l-17.1,6.9v8.9l26.5-11.1v-9.4L562.1,42.7L562.1,42.7z"/>
<g>
	<g>
		<path class="st2" d="M170,656.7c-8,0.6-14.8-1.3-20.4-4.8c-22.7-14-27.4-53.6-27.7-56.6c0.2,0.9,2.4,5.8,26,21.6
			c2,1.3,3.8,2.7,5.4,4c0,0,0,0,0.1,0.1C174,638.1,170,656.7,170,656.7z"/>
		<path class="st3" d="M121.9,595.2c0,0,21.2,52,44.7,57.4"/>
		<path class="st4" d="M170,656.7c-8,0.6-14.8-1.3-20.4-4.8c4.5-10.7,3.7-30.9,3.7-30.9s0,0,0.1,0.1C174,638.1,170,656.7,170,656.7z
			"/>
	</g>
	<g>
		<path class="st2" d="M230.2,598.2c-0.1,0.6-0.4,2.5-1,5.3c0,0,0,0,0,0c-3.3,15-15.4,55.3-47.9,51.2c0,0-0.5-3.5,0.5-8.6
			c1.6-7.6,6.8-18.9,22.5-28.4C227.6,603.6,230,599.1,230.2,598.2z"/>
		<path class="st3" d="M229.2,601.4c0,0-16.7,43.2-45.6,52"/>
		<path class="st4" d="M229.2,603.5C229.2,603.5,229.2,603.6,229.2,603.5c-3.3,15-15.4,55.3-47.9,51.3c0,0-0.5-3.5,0.5-8.6h0
			C208.9,647.6,229.2,603.5,229.2,603.5z"/>
	</g>
	<g>
		<path class="st5" d="M179.5,656.2c-0.8,1.4-12.7-3.5-18-17.8h0c-3.2-8.6-4.1-20.5,1.2-36.5c13.9-41.9,8.2-49.8,8-50
			c0.3,0.1,12.4,6.1,20.2,20.8c0,0,0,0,0,0.1C199.6,588.9,202.9,615.5,179.5,656.2z"/>
		<path class="st6" d="M170.8,552c0,0,18.2,22.9,11.2,66.5c-6.9,43.6-2.5,37.7-2.5,37.7"/>
		<path class="st7" d="M179.5,656.2c-0.8,1.4-12.7-3.5-18-17.8c29.9,8.5,29.4-65.7,29.4-65.7s0,0,0,0.1
			C199.6,588.9,202.9,615.5,179.5,656.2z"/>
	</g>
	<path class="st2" d="M121.9,595.2c0,0,0,0,0,0.1C121.9,595.2,121.9,595.2,121.9,595.2z"/>
	<path class="st8" d="M202.5,655.6v33.5c0,9.8-7.9,17.7-17.7,17.7H169c-6.4,0-12-3.4-15.1-8.5h0c-1.6-2.7-2.6-5.9-2.6-9.2v-33.5
		H202.5z"/>
	<path class="st8" d="M204.6,651.3h-55.4c-0.6,0-1.1,0.5-1.1,1.1v2.2c0,0.6,0.5,1.1,1.1,1.1h55.4c0.6,0,1.1-0.5,1.1-1.1v-2.2
		C205.7,651.7,205.2,651.3,204.6,651.3z"/>
	<path class="st9" d="M202.5,655.6v33.5c0,9.8-7.9,17.7-17.7,17.7H169c-6.4,0-12-3.4-15.1-8.5c37.5,11.8,45.7-15.8,44.2-26.7
		c-1.4-10.9-15-16-15-16H202.5z"/>
</g>
<ellipse id="XMLID_85_" transform="matrix(0.7071 -0.7071 0.7071 0.7071 -302.6139 440.6813)" class="st10" cx="380.6" cy="585.6" rx="26.2" ry="26.2"/>
<circle id="XMLID_82_" class="st11" cx="776.8" cy="538.5" r="20.4"/>
<g>
	<path class="st12" d="M920.4,371.7v148.7c0,4.4-3.6,8-8,8H764.6c-4.4,0-8-3.6-8-8V371.7c0-4,3.2-7.2,7.1-7.2h149.6
		C917.2,364.6,920.4,367.8,920.4,371.7z"/>
	<g>
		<g>
			<path class="st13" d="M920.4,475.9v44.5c0,4.4-3.6,8-8,8h-81.5l-15.6-32.3l10.4-12.1l38.5-44.9c4.2-4.9,10.5-5.4,15.1-1.1
				L920.4,475.9z"/>
			<path class="st14" d="M920.4,493.6v26.8c0,4.4-3.6,8-8,8H764.6c-4.4,0-8-3.6-8-8v-53.7l21.1-10.9c4.5-2.3,10-1.8,14,1.5
				l29.7,24.5c1.3,1.1,2.8,1.9,4.4,2.3c2.9,0.9,6.1,0.7,9-0.6l38.2-17.4c4.3-1.9,9.2-1.4,13,1.4L920.4,493.6z"/>
		</g>
		
			<ellipse transform="matrix(0.1696 -0.9855 0.9855 0.1696 244.8987 1169.6119)" class="st15" cx="816.5" cy="439.5" rx="18.2" ry="18.2"/>
	</g>
</g>
<g>
	<g>
		<path class="st16" d="M918,333.5h-50.5c-3.6,0-6.5-2.9-6.5-6.5v-50.5c0-3.6,2.9-6.5,6.5-6.5H918c3.6,0,6.5,2.9,6.5,6.5V327
			C924.4,330.6,921.5,333.5,918,333.5z"/>
		<path class="st16" d="M894.4,344.6l10.4-14c0.5-0.7,0-1.7-0.9-1.7h-22.2c-0.9,0-1.4,1-0.9,1.7l10.4,14
			C891.9,345.7,893.6,345.7,894.4,344.6z"/>
	</g>
	<path class="st12" d="M910.1,296.4c0-4.9-4-8.8-8.8-8.8c-4.3,0-7.8,3.1-8.6,7.1c-0.9-3.9-4.4-6.8-8.6-6.8c-4.9,0-8.8,4-8.8,8.8
		c0,6.4,12,16.9,16.1,20.3c0.8,0.7,1.9,0.7,2.7,0C898.3,313.8,910.2,303.5,910.1,296.4z"/>
</g>
<path class="st17" d="M894.5,401.2c-0.9,0-1.8,0.3-2.6,0.7c-0.7-3.8-4.1-6.7-8.1-6.7c-0.8,0-1.6,0.2-2.4,0.4
	c-1.6-4.8-6.2-8.2-11.5-8.2c-5.2,0-9.6,3.2-11.4,7.8c-1.7-1.4-3.8-2.3-6.2-2.3c-4.9,0-9,3.8-9.4,8.6c-0.6-0.2-1.1-0.3-1.8-0.3
	c-2.9,0-5.3,2.4-5.3,5.3c0,2.9,2.4,5.3,5.3,5.3h11.2h17.5h13.9h10.7c2.9,0,5.3-2.4,5.3-5.3C899.8,403.6,897.4,401.2,894.5,401.2z"/>
<path class="st18" d="M820,180.3c0-4.7-3.8-8.6-8.6-8.6h-100c-4.7,0-8.6,3.8-8.6,8.6v68.5c0,4.7,3.8,8.6,8.6,8.6h100
	c4.7,0,8.6-3.8,8.6-8.6V180.3L820,180.3z"/>
<path class="st1" d="M742,220.6c0.5,1,1.2,1.8,1.9,2.3c0.7,0.5,1.4,0.7,2.1,0.7c0.5,0,1-0.1,1.5-0.2c0.4-0.1,0.8-0.4,1.1-0.8
	c0.3-0.4,0.5-0.9,0.7-1.5c0.2-0.6,0.2-1.5,0.2-2.4v-19.7h8.3v20.4c0,1.6-0.2,3-0.6,4.4c-0.4,1.4-1.1,2.6-1.9,3.6
	c-0.9,1-2,1.9-3.3,2.5c-1.3,0.6-2.9,0.9-4.7,0.9c-2.6,0-4.7-0.5-6.4-1.4c-1.7-1-3.1-2.4-4.3-4.5L742,220.6L742,220.6z M767.1,220.6
	c1.1,0.9,2.3,1.6,3.6,2.2c1.3,0.6,2.5,0.8,3.7,0.8c1.2,0,2.2-0.2,2.7-0.6c0.6-0.4,0.8-0.9,0.8-1.6c0-0.4-0.1-0.7-0.3-1
	c-0.2-0.3-0.5-0.5-0.8-0.7c-0.4-0.2-0.8-0.4-1.3-0.6c-0.5-0.2-1.1-0.4-1.8-0.7l-3.9-1.6c-0.8-0.3-1.6-0.7-2.4-1.3
	c-0.8-0.5-1.4-1.2-2-1.9c-0.6-0.7-1-1.5-1.4-2.5c-0.3-0.9-0.5-2-0.5-3.1c0-1.3,0.3-2.6,0.9-3.8c0.6-1.2,1.4-2.2,2.4-3.1
	c1-0.9,2.2-1.6,3.7-2.1c1.4-0.5,3-0.8,4.7-0.8c1.8,0,3.6,0.3,5.5,1c1.8,0.7,3.5,1.7,4.9,3.2l-4.1,5.2c-1.1-0.7-2.1-1.3-3-1.7
	c-1-0.4-2-0.6-3.2-0.6c-1,0-1.8,0.2-2.4,0.5c-0.6,0.4-0.9,0.9-0.9,1.6c0,0.7,0.4,1.3,1.2,1.7c0.8,0.4,1.9,0.9,3.4,1.4l3.8,1.5
	c2,0.8,3.5,1.8,4.5,3.2c1.1,1.4,1.6,3.2,1.6,5.3c0,1.3-0.3,2.6-0.8,3.8c-0.5,1.2-1.3,2.3-2.4,3.2c-1,0.9-2.3,1.6-3.8,2.2
	c-1.5,0.5-3.2,0.8-5.2,0.8c-2,0-4-0.4-6.1-1.1c-2.1-0.7-4-1.8-5.7-3.4L767.1,220.6L767.1,220.6z"/>
<path class="st19" d="M736.9,112.9c0-6-4.8-10.8-10.8-10.8H569.6c-6,0-10.8,4.8-10.8,10.8v86.6c0,6,4.8,10.8,10.8,10.8H726
	c6,0,10.8-4.8,10.8-10.8V112.9L736.9,112.9z"/>
<path class="st20" d="M584.9,139.4h8.9v12.5h10v-12.5h8.9v33.5h-8.9v-13.3h-10v13.3h-8.9V139.4L584.9,139.4z M689.2,139.4h8.9v26.1
	h12.7v7.4h-21.6V139.4L689.2,139.4z M626.5,146.8h-8.9v-7.4h26.6v7.4h-8.9v26.1h-8.9V146.8L626.5,146.8z M649.2,139.4h9.2l5.3,13.9
	l1.9,5.5h0.2l1.9-5.5l5.1-13.9h9.2v33.5h-8.2V163c0-0.9,0-1.8,0.1-2.8c0.1-1,0.2-2.1,0.3-3.2c0.1-1.1,0.2-2.1,0.4-3.2
	c0.1-1,0.3-2,0.4-2.8h-0.2l-2.8,7.8l-4.6,11.3h-3.3l-4.6-11.3l-2.7-7.8h-0.2c0.1,0.8,0.2,1.8,0.4,2.8c0.1,1,0.3,2.1,0.4,3.2
	c0.1,1.1,0.2,2.1,0.3,3.2c0.1,1,0.1,2,0.1,2.8v9.9h-8.1V139.4L649.2,139.4z"/>
<path class="st21" d="M565.2,138.8c0-4.4-3.6-8-8-8H450c-4.4,0-8,3.6-8,8v64c0,4.4,3.6,8,8,8h107.2c4.4,0,8-3.6,8-8V138.8
	L565.2,138.8z"/>
<path class="st1" d="M468.7,171c0-2.4,0.4-4.5,1.1-6.3c0.8-1.8,1.8-3.4,3-4.6c1.3-1.3,2.7-2.2,4.4-2.9c1.7-0.7,3.4-1,5.2-1
	c1.8,0,3.4,0.4,4.9,1.1c1.5,0.7,2.7,1.6,3.7,2.6l-4.1,4.6c-0.7-0.6-1.4-1.1-2-1.4c-0.7-0.3-1.5-0.5-2.4-0.5c-0.8,0-1.6,0.2-2.4,0.6
	c-0.8,0.4-1.4,0.9-2,1.6c-0.6,0.7-1,1.5-1.3,2.6c-0.3,1-0.5,2.2-0.5,3.4c0,2.7,0.6,4.7,1.7,6.1c1.1,1.4,2.6,2.1,4.4,2.1
	c1.1,0,2-0.2,2.8-0.6c0.8-0.4,1.5-1,2.1-1.6l4.1,4.5c-1.2,1.4-2.6,2.4-4.2,3.1c-1.6,0.7-3.2,1-4.9,1c-1.9,0-3.6-0.3-5.3-0.9
	c-1.7-0.6-3.1-1.5-4.3-2.7c-1.2-1.2-2.2-2.7-3-4.5C469,175.5,468.7,173.4,468.7,171L468.7,171z M520.2,176.3c1,0.8,2.1,1.5,3.3,2
	c1.2,0.5,2.3,0.8,3.3,0.8c1.1,0,1.9-0.2,2.5-0.5c0.5-0.3,0.8-0.8,0.8-1.5c0-0.3-0.1-0.6-0.3-0.9c-0.2-0.2-0.4-0.4-0.8-0.7
	c-0.3-0.2-0.7-0.4-1.2-0.6c-0.5-0.2-1-0.4-1.6-0.6l-3.5-1.5c-0.8-0.3-1.5-0.7-2.2-1.2c-0.7-0.5-1.3-1-1.8-1.7
	c-0.5-0.7-0.9-1.4-1.2-2.2c-0.3-0.8-0.5-1.8-0.5-2.8c0-1.2,0.3-2.4,0.8-3.4c0.5-1.1,1.2-2,2.2-2.8c0.9-0.8,2-1.4,3.3-1.9
	c1.3-0.5,2.7-0.7,4.2-0.7c1.6,0,3.3,0.3,4.9,0.9c1.7,0.6,3.1,1.6,4.5,2.9l-3.7,4.7c-1-0.7-1.9-1.2-2.8-1.5c-0.9-0.3-1.8-0.5-2.9-0.5
	c-0.9,0-1.6,0.2-2.2,0.5c-0.5,0.3-0.8,0.8-0.8,1.4c0,0.7,0.4,1.2,1.1,1.5c0.7,0.4,1.8,0.8,3.1,1.3l3.4,1.3c1.8,0.7,3.1,1.7,4.1,2.9
	c1,1.2,1.4,2.9,1.4,4.8c0,1.2-0.2,2.3-0.7,3.4c-0.5,1.1-1.2,2.1-2.1,2.9c-0.9,0.8-2.1,1.5-3.5,2c-1.4,0.5-2.9,0.7-4.7,0.7
	c-1.8,0-3.6-0.3-5.5-1c-1.9-0.7-3.6-1.7-5.1-3.1L520.2,176.3L520.2,176.3z M496.6,176.3c1,0.8,2.1,1.5,3.3,2
	c1.2,0.5,2.3,0.8,3.3,0.8c1.1,0,1.9-0.2,2.5-0.5c0.5-0.3,0.8-0.8,0.8-1.5c0-0.3-0.1-0.6-0.3-0.9c-0.2-0.2-0.4-0.4-0.8-0.7
	c-0.3-0.2-0.7-0.4-1.2-0.6c-0.5-0.2-1-0.4-1.6-0.6l-3.5-1.5c-0.8-0.3-1.5-0.7-2.2-1.2c-0.7-0.5-1.3-1-1.8-1.7
	c-0.5-0.7-0.9-1.4-1.2-2.2c-0.3-0.8-0.5-1.8-0.5-2.8c0-1.2,0.3-2.4,0.8-3.4c0.5-1.1,1.2-2,2.2-2.8c0.9-0.8,2-1.4,3.3-1.9
	c1.3-0.5,2.7-0.7,4.2-0.7c1.6,0,3.3,0.3,4.9,0.9c1.7,0.6,3.1,1.6,4.5,2.9l-3.7,4.7c-1-0.7-1.9-1.2-2.8-1.5c-0.9-0.3-1.8-0.5-2.9-0.5
	c-0.9,0-1.6,0.2-2.2,0.5c-0.5,0.3-0.8,0.8-0.8,1.4c0,0.7,0.4,1.2,1.1,1.5c0.7,0.4,1.8,0.8,3.1,1.3l3.4,1.3c1.8,0.7,3.1,1.7,4.1,2.9
	c1,1.2,1.4,2.9,1.4,4.8c0,1.2-0.2,2.3-0.7,3.4c-0.5,1.1-1.2,2.1-2.1,2.9c-0.9,0.8-2.1,1.5-3.5,2c-1.4,0.5-2.9,0.7-4.7,0.7
	c-1.8,0-3.6-0.3-5.5-1c-1.9-0.7-3.6-1.7-5.1-3.1L496.6,176.3L496.6,176.3z"/>
<path class="st22" d="M716,207.6c0-4.7-3.8-8.6-8.6-8.6H549.1c-4.7,0-8.6,3.8-8.6,8.6V276c0,4.7,3.8,8.6,8.6,8.6h158.3
	c4.7,0,8.6-3.8,8.6-8.6V207.6L716,207.6z"/>
<path class="st1" d="M573.6,242c0-2.5,0.4-4.7,1.2-6.7c0.8-1.9,1.9-3.6,3.2-4.9c1.3-1.3,2.9-2.4,4.7-3.1c1.8-0.7,3.6-1.1,5.5-1.1
	c1.9,0,3.6,0.4,5.2,1.2c1.5,0.8,2.9,1.7,3.9,2.8l-4.3,4.9c-0.7-0.6-1.5-1.1-2.2-1.5c-0.7-0.4-1.5-0.5-2.5-0.5
	c-0.9,0-1.7,0.2-2.5,0.6c-0.8,0.4-1.5,1-2.1,1.7c-0.6,0.7-1.1,1.6-1.4,2.7c-0.4,1.1-0.5,2.3-0.5,3.6c0,2.8,0.6,5,1.8,6.5
	c1.2,1.5,2.7,2.3,4.7,2.3c1.2,0,2.2-0.2,3-0.7c0.8-0.4,1.6-1,2.2-1.7l4.3,4.8c-1.3,1.5-2.8,2.6-4.4,3.3c-1.7,0.7-3.4,1.1-5.2,1.1
	c-2,0-3.8-0.3-5.6-0.9c-1.7-0.6-3.3-1.6-4.6-2.8c-1.3-1.3-2.4-2.9-3.1-4.8C574,246.8,573.6,244.6,573.6,242L573.6,242z M612.6,257.3
	c-2.1,0-4-0.4-5.7-1.1c-1.7-0.7-3.2-1.7-4.4-3.1c-1.2-1.3-2.2-3-2.8-4.9c-0.7-1.9-1-4.1-1-6.6c0-2.4,0.3-4.6,1-6.5
	c0.7-1.9,1.6-3.5,2.8-4.8c1.2-1.3,2.7-2.3,4.4-3c1.7-0.7,3.6-1,5.7-1c2.1,0,3.9,0.3,5.6,1c1.7,0.7,3.2,1.7,4.4,3
	c1.2,1.3,2.2,2.9,2.8,4.8c0.7,1.9,1,4.1,1,6.5c0,2.4-0.3,4.6-1,6.6c-0.7,1.9-1.6,3.6-2.8,4.9c-1.2,1.3-2.7,2.4-4.4,3.1
	C616.5,256.9,614.6,257.3,612.6,257.3L612.6,257.3z M661.2,226.9h19.3v6.6h-11.4v4.7h9.7v6.6h-9.7v5.3H681v6.6h-19.7V226.9
	L661.2,226.9z M631.8,226.9h8.8c2.3,0,4.3,0.3,6.2,0.8c1.9,0.6,3.5,1.4,4.8,2.6c1.3,1.2,2.4,2.7,3.1,4.6c0.8,1.9,1.1,4.1,1.1,6.8
	c0,2.6-0.4,4.9-1.1,6.8c-0.7,1.9-1.8,3.5-3.1,4.7c-1.3,1.2-2.9,2.1-4.7,2.7c-1.8,0.6-3.8,0.9-5.9,0.9h-9.3V226.9L631.8,226.9z
	 M612.6,250.5c1.8,0,3.2-0.8,4.2-2.4c1-1.6,1.5-3.7,1.5-6.5c0-2.7-0.5-4.8-1.5-6.3c-1-1.5-2.4-2.2-4.2-2.2c-1.8,0-3.2,0.7-4.2,2.2
	c-1,1.5-1.5,3.6-1.5,6.3c0,2.7,0.5,4.9,1.5,6.5C609.3,249.7,610.8,250.5,612.6,250.5L612.6,250.5z M640.1,250.4c1.1,0,2.1-0.1,3-0.4
	c0.9-0.3,1.8-0.7,2.5-1.4c0.7-0.6,1.2-1.5,1.6-2.7c0.4-1.1,0.6-2.6,0.6-4.3c0-1.7-0.2-3.2-0.6-4.3c-0.4-1.1-0.9-2-1.6-2.6
	c-0.7-0.6-1.5-1-2.5-1.3c-0.9-0.2-2-0.3-3-0.3h-0.5v17.2H640.1L640.1,250.4z"/>
<path class="st23" d="M499.7,465.5c0,0,42.9-16.5,54.1,38.2c11.2,54.7,23.5,101.7,29.4,117c5.9,15.3,9.4,58.8,9.4,61.8
	s0,33.5,0,33.5s-48.2,3.5-50,3.5c-1.8,0-35.8-14.3-35-14.5C508.5,704.9,518,486.1,499.7,465.5z"/>
<path class="st23" d="M315,452l-52.9,13.5c0,0,37.6,41.8,37.1,79.4c-0.6,37.6-12.4,87-12.4,87l1.8,60.6c0,0,207.8,53,230.6,0
	c45.9-107,16.1-181,16.1-181s-18.4-42.5-26.7-53C500.3,447.9,315,452,315,452z"/>
<path class="st23" d="M262.1,465.5c0,0-32.3,2.4-36.5,13.5c-4.1,11.2-19.4,63-19.4,94.2c0,31.2-1.8,53.5-3.6,64.6
	c-1.8,11.2-7.6,66.6,4.1,78.8c29.4,30.6,228.8,18.8,228.8,18.8s-6.5-60,11.2-64.1l4.7-0.6c0,0-61.2-1.2-79.4-1.8
	c-13-0.4-51.6-8.3-72.8-12.8c-7.4-1.6-11.8-9.2-9.3-16.4c9.4-27.7,27.2-92.9,4.5-138.4C293.3,499.1,279.8,473.8,262.1,465.5z"/>
<path class="st24" d="M431.5,719.4c0,0,19.7-2.6,19.7-2.5c0.1,0,1.7,1.4,1.7,1.9c0.1,0.4,0.3,6,0,6.4c-0.3,0.4-3.7,4-3.7,4
	s-1,1.4-3.6,1.6c-2.6,0.2-5.8,0.4-7.9,0.2s-2.1-0.6-2.4-1.1S431.5,719.4,431.5,719.4z"/>
<path class="st1" d="M434.4,605.5l17.1,81.8l22.9-1.8c0,0,11.2-60,10.6-62.3c-0.6-2.4-11.2-33.5-14.1-34.7
	C468,587.3,434.4,605.5,434.4,605.5z"/>
<g>
	<path class="st25" d="M579,701.7c-2.3,0.9-17,3.2-27.6,8.5c-10.6,5.3-35.3,3.5-35.3,3.5s21.8-19.4,24.7-20
		c2.9-0.6,10.6-5.3,15.9-4.7c5.3,0.6,14.7,0,17.6,0.6S579,701.7,579,701.7z"/>
	<path class="st26" d="M443.5,678.1l56.2-0.2c0,0,25.9-2.9,37.1-7.6c11.2-4.7,18.8-9.4,34.7-4.7c15.9,4.7,22.9,5.3,22.9,5.3
		l1.2,39.4c0,0-27.1-14.1-29.4-14.7s-32.3,10.6-40.6,15.9c-8.2,5.3-14.1,10-46.5,7.1s-42.3,5.9-42.3,5.9S434.9,686.5,443.5,678.1z"
		/>
</g>
<path class="st27" d="M453.4,678c0,0,2.2-6-1.9-7.2c-2.3-0.7-10-0.7-14.8,8.9c-6.2,12.6-6.8,56.9-0.5,55.8c3.8-0.7,7.7-2,10.9-3.2
	c4.5-1.8,7.9-5.6,9.1-10.3l0,0c0,0-2.4,0.6-2.9,0.6c-0.6,0-13.4,9.1-14,6.2c-0.6-2.9-1.3-24.4-0.7-29.1c0.6-4.7,1.8-20.5,6.5-22.9
	c4-2.1,4.5,1.4,4.5,1.4L453.4,678z"/>
<path class="st28" d="M479.4,465.1c0,0,9.7-32.4,10.9-36c0.5-1.4,1.9-2.3,3.4-2.8c-3.3-9.5-1.8-19.7-1.8-19.7s9.6-24.6,6.7-36.4
	c0,0,2-15,0.5-34.9c-0.3,0.5-0.5,0.8-0.5,0.8s-7.1-36.5-30-40.6c-22.9-4.1-64.1,53.5-68.2,60c-4.1,6.5-27.1,42.3-30.6,49.4
	c-3.5,7.1-5.3,67-5.3,67l-51.9-93.1c-1.3,5.7-2.8,10.8-4.6,14.8c-9.4,21.2-3.5,42.3-3.5,42.3s-2.4,61.2,2.9,71.8
	c0,0,9.4,76.5,10,80.6c0.6,4.1,55.9,0,58.8,2.4c2.9,2.4,8.2,14.7,11.8,14.7s6.5,1.2,8.8-4.7s3.5-10.6,3.5-10.6s62.3,58.8,70,62.9
	c7.6,4.1,28.8,2.4,20.6-66.5C492.1,563.2,479.4,465.1,479.4,465.1z"/>
<path class="st17" d="M500.7,370c0,0-0.2-14.7-1.7-34.6c-0.3,0.5-0.5,0.8-0.5,0.8s-7.1-36.5-30-40.6c-22.9-4.1-64.1,53.5-68.2,60
	c-4.1,6.5-27.1,42.3-30.6,49.4c-3.5,7.1-5.3,67-5.3,67l-22.8-40.9c9.8-17.3,18.9-33.2,23.6-41.5c12.6-22.4,2.1-85.8,29.8-123.4
	c15.2-20.7,33.7-23.1,47.4-21c-12.9-4.8-26.8-6.8-40.3-6.6c-34.1,0.6-70.6,29.4-77,57.1c-5.2,22.4-7,59-12.5,83.4
	c-1.3,5.7-2.8,10.8-4.6,14.8c-9.4,21.2-3.5,42.3-3.5,42.3s-2.4,61.2,2.9,71.8l10,80.6c0,0,55.9,0,58.8,2.4
	c2.9,2.4,8.2,14.7,11.8,14.7s6.5,1.2,8.8-4.7c2.4-5.9,3.5-10.6,3.5-10.6s62.3,58.8,70,62.9c7.6,4.1,28.8,2.4,20.6-66.5
	c1.2-23.5-11.5-121.6-11.5-121.6s9.7-32.4,10.9-36c0.5-1.4,1.9-2.3,3.4-2.8c-3.3-9.5-1.6-16.8-1.6-16.8S502,390.9,500.7,370z"/>
<path class="st17" d="M492.1,406.7c0,0,8.2,18.2,4.7,22.3c-3.5,4.1-1.2,22.9-30.6,50c-29.4,27.1-75.9,34.7-79.4,34.7
	c-3.5,0-41.2-73.5-41.2-97s4.1-37.1,31.8-37.6c27.6-0.6,32.9-1.8,48.2,0c15.3,1.8,26.5,0,31.8,1.8c5.3,1.8,11.8,0,14.1,3.5
	S492.1,406.7,492.1,406.7z"/>
<path class="st26" d="M467.7,286.4c-4.4-0.7-84.1,15.3-92.9,61.8s-10.3,35.6-10.3,35.6s2.9,50.6,56.5,70.6c0,0,35.3,12.4,47.1-5.9
	c11.8-18.2,32.3-45.9,30.6-78.2c-1.8-32.3,0-51.8-18.2-75.3C480.3,295,483.8,289.1,467.7,286.4z"/>
<path class="st17" d="M488.5,289.1c-9.6-22.7-26.6-36.6-46.1-44c-13.6-2-32.2,0.4-47.4,21c-27.6,37.6-17.2,101-29.8,123.4
	c-4.7,8.3-13.8,24.2-23.6,41.5l22.8,40.9c0,0,1.8-60,5.3-67c3.5-7.1,26.5-42.9,30.6-49.4c4.1-6.5,45.3-64.1,68.2-60
	c22.9,4.1,30,40.6,30,40.6s0.2-0.3,0.5-0.8C498,321.3,495.1,304.7,488.5,289.1z"/>
<path class="st17" d="M395,266.2c15.2-20.7,33.7-23.1,47.4-21c-12.9-4.8-26.8-6.8-40.3-6.6c-34.1,0.6-70.6,29.4-77,57.1
	c-5.2,22.4-7,59-12.5,83.4l29.1,52.2c9.8-17.3,18.9-33.2,23.6-41.5C377.8,367.2,367.4,303.8,395,266.2z"/>
<path class="st29" d="M583.2,733.7c0,0-7.1,0.6-16.5,0s-118.2-11.2-118.2-11.2v8.3l134.7,14l6.5-2.4l1.8-5.9
	C591.5,736.7,585,733.7,583.2,733.7z"/>
<polygon class="st30" points="448.6,722.6 606.8,704.9 606.8,722.6 606.8,732 579,733.9 566.8,733.7 "/>
<polygon class="st29" points="514.4,725.5 579.6,731.9 582.3,718 "/>
<path class="st30" d="M618,520.8l-38.7,212.5c-1.3,6.9,4.6,13.1,11.5,12.2l246.9-30.9c4.4-0.5,7.9-3.8,8.9-8.1l44.4-199.6
	c1.1-5.1-2.9-9.9-8.2-9.7l-253.5,13.6C623.6,511.2,619,515.3,618,520.8z"/>
<g>
	<defs>
		<path id="SVGID_00000072270881300428458780000015430151478977145780_" d="M618,520.8l-38.7,212.5c-1.3,6.9,4.6,13.1,11.5,12.2
			l246.9-30.9c4.4-0.5,7.9-3.8,8.9-8.1l44.4-199.6c1.1-5.1-2.9-9.9-8.2-9.7l-253.5,13.6C623.6,511.2,619,515.3,618,520.8z"/>
	</defs>
	<clipPath id="SVGID_00000140693224478780571700000005785449957355554199_">
		<use xlink:href="#SVGID_00000072270881300428458780000015430151478977145780_"  style="overflow:visible;"/>
	</clipPath>
	<path style="clip-path:url(#SVGID_00000140693224478780571700000005785449957355554199_);fill:#CCCCCC;" d="M659.1,509.3
		c-0.8-0.2-17.9,2-28.4,3.4c-4.8,0.6-8.7,4.3-9.6,9.1L579,747.3h-2.3l41.3-227.1c0.9-5.1,5.3-8.9,10.5-9.2L659.1,509.3"/>
</g>
<g>
	<g>
		<path class="st12" d="M1003.1,719.4h-74.9c-14.2,0-25.6-11.5-25.6-25.6v-80.9c0-2.6,2.1-4.7,4.7-4.7h116.8c2.6,0,4.7,2.1,4.7,4.7
			v80.9C1028.8,707.9,1017.3,719.4,1003.1,719.4z"/>
		
			<ellipse transform="matrix(0.9925 -0.1219 0.1219 0.9925 -71.6859 132.3473)" class="st32" cx="1046.1" cy="652.2" rx="21.1" ry="21.1"/>
		<g>
			<g>
				<path class="st23" d="M928.1,660.8h5.7c1.9,0,3.2,0.5,4.2,1.5c0.9,1,1.4,2.5,1.4,4.4v12c0,1.9-0.5,3.4-1.4,4.4
					c-0.9,1-2.3,1.5-4.2,1.5h-5.7V660.8z M933.7,681.1c0.6,0,1.1-0.2,1.4-0.5c0.3-0.4,0.5-0.9,0.5-1.8v-12.3c0-0.8-0.2-1.4-0.5-1.8
					c-0.3-0.4-0.8-0.5-1.4-0.5h-1.9v16.9H933.7z"/>
				<path class="st23" d="M942.7,660.8h10.2v3.4h-6.4v6.3h5.1v3.4h-5.1v7.3h6.4v3.4h-10.2V660.8z"/>
				<path class="st23" d="M956.6,683.3c-0.9-1-1.4-2.5-1.4-4.4v-1.4h3.5v1.6c0,1.5,0.6,2.3,1.9,2.3c0.6,0,1.1-0.2,1.4-0.6
					c0.3-0.4,0.5-1,0.5-1.8c0-1-0.2-1.9-0.7-2.6c-0.5-0.8-1.3-1.7-2.5-2.7c-1.5-1.4-2.6-2.6-3.2-3.7c-0.6-1.1-0.9-2.3-0.9-3.7
					c0-1.9,0.5-3.3,1.4-4.4c0.9-1,2.3-1.5,4.1-1.5c1.8,0,3.1,0.5,4,1.5c0.9,1,1.4,2.5,1.4,4.4v1h-3.5v-1.2c0-0.8-0.2-1.4-0.5-1.8
					c-0.3-0.4-0.8-0.6-1.4-0.6c-1.2,0-1.9,0.8-1.9,2.3c0,0.9,0.2,1.7,0.7,2.4c0.5,0.7,1.3,1.6,2.5,2.7c1.6,1.4,2.6,2.6,3.2,3.7
					c0.6,1.1,0.9,2.4,0.9,3.9c0,1.9-0.5,3.4-1.4,4.5c-1,1-2.4,1.6-4.2,1.6C958.9,684.9,957.6,684.4,956.6,683.3z"/>
				<path class="st23" d="M969.4,660.8h3.7v23.7h-3.7V660.8z"/>
				<path class="st23" d="M977.9,683.3c-0.9-1-1.4-2.5-1.4-4.4v-12.5c0-1.9,0.5-3.4,1.4-4.4c0.9-1,2.3-1.5,4.1-1.5
					c1.8,0,3.2,0.5,4.1,1.5c0.9,1,1.4,2.5,1.4,4.4v2H984v-2.3c0-1.6-0.6-2.3-1.9-2.3c-1.3,0-1.9,0.8-1.9,2.3v13
					c0,1.5,0.6,2.3,1.9,2.3c1.3,0,1.9-0.8,1.9-2.3v-4.6h-1.9v-3.4h5.4v7.8c0,1.9-0.5,3.4-1.4,4.4c-0.9,1-2.3,1.5-4.1,1.5
					C980.2,684.9,978.8,684.4,977.9,683.3z"/>
				<path class="st23" d="M990.8,660.8h4.7l3.6,14.2h0.1v-14.2h3.3v23.7h-3.8l-4.5-17.3h-0.1v17.3h-3.3V660.8z"/>
			</g>
			<path class="st16" d="M994.9,634.3c0-4.6-3.7-8.3-8.3-8.3c-4,0-7.4,2.9-8.1,6.7c-0.9-3.7-4.2-6.4-8.1-6.4c-4.6,0-8.3,3.7-8.3,8.3
				c0,6,11.3,15.9,15.2,19.2c0.8,0.6,1.8,0.6,2.6,0C983.7,650.7,994.9,641,994.9,634.3z"/>
			<g>
				<path class="st23" d="M946.2,627.5h3.7v23.7h-3.7V627.5z"/>
			</g>
		</g>
	</g>
	<g>
		<g>
			<g>
				<path class="st33" d="M948.2,596c0-9.6,2.3-9.6,2.3-19.2c0-9.6-2.3-9.6-2.3-19.2s2.3-9.6,2.3-19.2"/>
			</g>
			<g>
				<path class="st33" d="M962,596c0-9.6,2.3-9.6,2.3-19.2c0-9.6-2.3-9.6-2.3-19.2s2.3-9.6,2.3-19.2"/>
			</g>
			<g>
				<path class="st33" d="M975.8,596c0-9.6,2.3-9.6,2.3-19.2c0-9.6-2.3-9.6-2.3-19.2s2.3-9.6,2.3-19.2"/>
			</g>
		</g>
	</g>
</g>
</svg>
